<?xml version="1.0" encoding="utf-8"?>
<!-- Generator: Adobe Illustrator 24.2.3, SVG Export Plug-In . SVG Version: 6.00 Build 0)  -->
<svg version="1.1" id="Capa_1" xmlns="http://www.w3.org/2000/svg" xmlns:xlink="http://www.w3.org/1999/xlink" x="0px" y="0px"
	 viewBox="0 0 800 800" style="enable-background:new 0 0 800 800;" xml:space="preserve">
<g>
	<g>
		<path d="M9.1,469.6C41.9,655.9,204.6,798,400,798c192.9,0,354-138.4,389.6-321.3c0.2-0.7,0.3-1.4,0.4-2.1c4.6-24,7-48.8,7-74.1
			C797,181.3,618.9,3,400,3C181.1,3,3,181.3,3,400.5c0,23,2.1,45.5,5.8,67.5C8.9,468.5,9,469,9.1,469.6z M191.5,666.6
			C130.2,618.4,85.9,549.4,69.3,470.3l105.3-150.5c16.9-5.4,37.6-6.4,52,11.5c10.4,13,23.9,19.9,39,19.9c0.2,0,0.4,0,0.6,0
			c21.8-0.3,43-14.9,58.3-29l17.7,22.7L153.2,526.5c-19.9,20.5-14.9,39.6-11.8,46.8c3.1,7.3,13.3,24.2,41.8,24.2h8.3L191.5,666.6
			L191.5,666.6z M197.5,287.1l47.1-67.3l61.6,79.1c-12.1,11.4-27.5,22.7-40.4,22.9c-3.9,0-9.8-0.8-16.2-8.8
			C234.8,294.4,216.2,287.6,197.5,287.1z M524.6,538.5V715c-15.4,6.1-31.3,11.1-47.7,15v-74.8h-66.3v83.5c-3.5,0.1-7,0.3-10.5,0.3
			c-10.8,0-21.4-0.6-31.9-1.6v-82.2h-66.3v69.1c-17.8-5.4-34.9-12.3-51.3-20.4V538.5h-24.6l164.2-157.7l111.6,115.1v-98.6h19.1
			v118.2l22.3,23L524.6,538.5L524.6,538.5L524.6,538.5z M583.5,684.5v-87h0.1c28.5,0,38.7-16.9,41.8-24.2c3.1-7.3,8-26.4-11.8-46.8
			l-33.9-34.9V388.9c0-28-22.7-50.7-50.7-50.7h-35.7c-17.1,0-32.3,8.5-41.4,21.6l-6.5-6.6l37.4-47.9c15.6-3.7,33.2-2.7,45.9,13.2
			c10.4,13,23.9,19.9,39,19.9c0.2,0,0.4,0,0.6,0c17.8-0.2,35.1-10,49.2-21.2l111.7,159.7C709.2,563.5,655.9,637.5,583.5,684.5z
			 M506.7,274.7l42.8-54.9l51.1,73.1c-10.9,8.9-22.8,15.9-32.6,16c-3.5,0.2-9.8-0.8-16.2-8.8C538.9,283.8,523,276.6,506.7,274.7z
			 M400,62c181.5,0,330,144,337.7,323.9L595.1,182.1c-10.7-15.4-26.8-24.4-44-24.9c-17.5-0.4-33.7,7.8-45.3,22.5L397,319.4
			L288.2,179.8c-11.5-14.8-27.9-23-45.2-22.5c-17.2,0.4-33.3,9.5-44,24.9l-136,194.4C75.2,201,221.7,62,400,62z"/>
		<rect x="301.7" y="542.7" width="66.3" height="95.3"/>
		<rect x="410.5" y="542.7" width="66.3" height="95.3"/>
	</g>
</g>
</svg>
