<?xml version="1.0" encoding="utf-8"?>
<!-- Generator: Adobe Illustrator 24.2.3, SVG Export Plug-In . SVG Version: 6.00 Build 0)  -->
<svg version="1.1" id="Capa_1" xmlns="http://www.w3.org/2000/svg" xmlns:xlink="http://www.w3.org/1999/xlink" x="0px" y="0px"
	 viewBox="0 0 800 800" style="enable-background:new 0 0 800 800;" xml:space="preserve">
<style type="text/css">
	.st0{fill:#4D7C0F;}
</style>
<g>
	<g>
		<path class="st0" d="M3.3,727.4c-7.5,14.2-2,31.7,12.2,39.2c14.2,7.5,31.7,2,39.2-12.2c0.3-0.5,54.3-52.5,323.6-52.5
			c291.6,0,371.4,73.3,371.8,73.6c5.7,5.9,13.3,8.9,20.9,8.9c7.2,0,14.5-2.7,20.1-8.1c11.6-11.1,11.9-29.5,0.9-41
			c-4.6-4.8-30.1-28.7-96.4-50.9c6-6,9.7-14.3,9.7-23.5V504.5c0,0,11.8,0,26.4,0c14.6,0,17-11.6,5.5-26L599.5,307.1
			c-11.5-14.3-30-14.2-41.4,0.2l-6.2,7.8c12.5,10,17.7,26.8,12.8,42.2c-5.1,15.8-19.7,26.7-36.3,27l-2.8,0.1l83.6,91.5
			c10.4,11.4,13.1,27.8,6.9,41.9c-6.2,14.1-20.2,23.2-35.6,23.2H479.8v106.1c-5.5-0.3-11-0.7-16.7-1V524.5h117.4
			c8.8,0,16.8-5.2,20.3-13.2c3.6-8.1,2-17.4-3.9-23.9L488.6,368.6l39.6-0.7c9.5-0.2,17.8-6.4,20.7-15.4c2.9-9.1-0.3-18.9-7.9-24.6
			l-47.8-35.6h5c0,0,0.1,0,0.1,0c11.8,0.1,22.3-9.9,22.3-22.2c0-5.8-2.2-11.1-5.9-15.1l-55.7-78.1h5.5c0,0,0.1,0,0.1,0
			c12.2-0.4,22.3-9.9,22.3-22.2c0-6-2.4-11.5-6.3-15.5l-87-114.7c-4.3-5.6-10.5-9.2-18.1-8.8c-7.1,0.1-13.7,3.6-17.8,9.4
			l-80.2,113.4c-4.8,6.8-5.4,15.7-1.6,23c3.3,6.4,9.6,10.8,16.6,11.8L233,255.7c-4.1,5.7-5,13-3,19.6c10.2,2,19.7,7.4,27.2,15.6
			l5.8,7l61.2,76.2l11.3-15.1c5-6.7,5.8-15.7,2.1-23.2c-3.8-7.5-11.4-12.3-19.8-12.3h-18.1l34.9-40.2c5.7-6.6,7-15.9,3.4-23.8
			c-3.6-7.9-11.5-13-20.2-13h-23.4l59.3-82.3c4.9-6.8,5.5-15.7,1.8-23.1c-3.4-6.6-9.8-11-17.1-11.9l38-53.8l43.2,57h-3.9
			c-8.3,0-15.9,4.6-19.7,12c-3.8,7.4-3.2,16.3,1.7,23.1l57.3,80.3h-28.9c-9.6,0-18.1,6.1-21.1,15.2c-3,9.1,0.1,19.1,7.8,24.8
			l49.5,36.8l-23.7,0.4c-8.7,0.2-16.5,5.4-20,13.4c-3.4,8-1.9,17.3,4,23.8l107.5,117.8h-89.2c-12.3,0-22.2,9.9-22.2,22.2v142.2
			c-10.9-0.3-22-0.4-33.5-0.5V525.5c-3.4,0.9-7,1.4-10.9,1.4h-4.2V644c-5.6,0-11.1,0-16.5,0.1V504.6c0,0,11.8,0,26.4,0
			c14.6,0,17-11.6,5.5-26L247.8,307.1c-11.5-14.4-30.1-14.2-41.4,0.2L72.3,478.3c-11.3,14.5-8.8,26.2,5.8,26.2h26.4V661
			c0,3.3,0.6,6.4,1.5,9.4C30.8,690.4,9.3,716.2,3.3,727.4z M239.2,506.3h40.1v58.9h-40.1V506.3z M239.2,591.5h40.1v54.9
			c-14.1,0.8-27.4,1.7-40.1,2.8V591.5z M172.9,506.3H213v58.9h-40.1V506.3z M172.9,591.5H213v58.9h-40.1V591.5z"/>
	</g>
</g>
</svg>
